<svg xmlns="http://www.w3.org/2000/svg" viewBox="0 0 909 477"><g id="Layer_2" data-name="Layer 2"><g id="Layer_1-2" data-name="Layer 1" fill="rgb(255, 128, 0)"><polygon points="909 216 864 261 774 261 774 477 721.02 261 684 261 612 432 612 261 576 261 576 432 504 261 468 315 432 261 360 432 360 261 0 477 216 261 45 261 0 288 288 0 360 72 120 216 360 216 360 189 462.32 189 450.95 216 485.05 216 473.68 189 576 189 576 216 709.98 216 657 0 774 0 774 216 909 216"/><polygon points="684 144 612 189 612 144 684 144"/></g></g></svg>